<svg id="Vrstva_1" data-name="Vrstva 1" xmlns="http://www.w3.org/2000/svg" viewBox="0 0 516 414"><defs><style>.cls-1{fill:#7cfc00;}</style></defs><path class="cls-1" d="M31.75,237.61l41.1-41.21L200.14,324.23c3.71-3.44,7-6.31,10.11-9.41q124.51-125.07,249-250.18c9.87-9.91,9.84-9.81,19.76-.09S499.07,83.91,509.5,94c-2.72,3.28-4.29,5.39-6.07,7.29-2.57,2.73-5.31,5.31-7.95,8q-143.21,144-286.25,288.12c-7.33,7.41-11.22,7.38-18.51,0C139.66,345.65,88.14,294.43,36.77,243,34.87,241.14,33.12,239.1,31.75,237.61Z"/></svg>