<svg id="Vrstva_1" data-name="Vrstva 1" xmlns="http://www.w3.org/2000/svg" viewBox="0 0 448.08 447.94"><defs><style>.cls-1{fill:#414755;}</style></defs><title>AddFriend</title><path class="cls-1" d="M186.1,214.46c-25.36-.72-48.28-13.31-65.84-35.82C87.21,136.26,89.7,72.4,125.69,33.06c34.76-38,89.13-39.34,125.69-3.12,44.45,44,41.66,123.23-5.85,163.61C229.47,207.2,210.89,214.43,186.1,214.46Z" transform="translate(-10.68 -3.65)"/><path class="cls-1" d="M305.23,298.25H259.91c-18.34,0-31.09,12.63-31.32,31-.11,8.83,0,17.66,0,26.5v6.43h-6q-93.22,0-186.45,0c-15.86,0-25.34-9.26-25.44-25-.08-10.65-.22-21.34.42-32A30,30,0,0,1,27.34,279.7c35.33-19.33,70.85-38.32,106.37-57.3a6.76,6.76,0,0,1,5.41.15q51,26.53,101.9-.05a7.28,7.28,0,0,1,5.82.15q27.81,14.68,55.4,29.8c1.25.68,2.85,2.26,2.86,3.44C305.3,269.84,305.23,283.79,305.23,298.25Z" transform="translate(-10.68 -3.65)"/><path class="cls-1" d="M458.76,374.94H382.44v76.65H331V374.88H254.16v-50.4h76.66V247.12h51.53v77.17h76.41Z" transform="translate(-10.68 -3.65)"/></svg>