<svg id="Vrstva_1" data-name="Vrstva 1" xmlns="http://www.w3.org/2000/svg" viewBox="0 0 816.6 816.06"><defs><style>.cls-1{fill:#247ba0;}</style></defs><title>DownloadBlue</title><path class="cls-1" d="M402.81,13h38.34c14.53,2.38,29.05,4.88,43.6,7.13C713.68,55.44,865.86,274,822.1,497.11c-43.41,221.34-243.45,360.42-465,327-159-24-293.27-147-330.2-303.34C21,495.61,17.58,469.83,13,444.34V399.6c2.3-13.49,4.79-27,6.87-40.5C45.8,190.76,174.43,56.49,342,23.23,362.16,19.23,382.54,16.38,402.81,13ZM221.13,471.9c5.05,6.06,7.77,9.86,11,13.12C292,544.86,352,604.46,411.46,664.6c8.87,9,13.92,7.07,21.76-.84q88.83-89.49,178.25-178.39c3.43-3.44,6.36-7.38,11.95-13.93-10.25-.88-16.39-1.83-22.54-1.86-32.45-.15-64.92-.78-97.35.23-15.26.48-20-4.16-19.84-19.72.76-86.72.18-173.44.79-260.16.09-14-3-19.76-18.36-19.1-29.21,1.23-58.53,1.07-87.76,0-14.47-.51-19.05,3.68-18.93,18.58.74,85.65.45,171.3.51,257,0,23.06,0,23.07-23.81,23.08-31.39,0-62.78-.1-94.17.1C236,469.64,229.94,470.89,221.13,471.9Z" transform="translate(-13.01 -13)"/></svg>