<svg id="Vrstva_1" data-name="Vrstva 1" xmlns="http://www.w3.org/2000/svg" viewBox="0 0 610.05 502.25"><defs><style>.cls-1{fill:#fff;}</style></defs><title>Groups</title><path class="cls-1" d="M194.87,505v-4.77c0-68.32-.48-136.64.15-204.95.48-50.73,24.42-87.65,70-109.72,44.52-21.54,102-9.72,135.42,26.7,21.85,23.8,32.64,51.76,32.63,84q0,101.47,0,203V505Z" transform="translate(-8.99 -2.71)"/><path class="cls-1" d="M541.36,457.76H452V451.9c0-50-.11-99.94.05-149.91.07-23-3.49-45.07-13.66-65.86-.58-1.18-1-2.45-1.73-4.28a70.84,70.84,0,0,1,30.86-3.47c36.42,4.3,63.52,28.27,72,63.83a83.55,83.55,0,0,1,2.1,18.8c.17,47.3.09,94.61.08,141.92C541.64,454.39,541.48,455.85,541.36,457.76Z" transform="translate(-8.99 -2.71)"/><path class="cls-1" d="M176,457.93H86.6c-.09-2.05-.24-3.81-.24-5.56,0-46.8-.1-93.61,0-140.41.11-41,26.48-73.9,65.78-82.35,13.09-2.82,26-1.88,38.9,2-2.84,7.48-5.61,14.55-8.22,21.69C177.55,267.77,176,282.82,176,298q-.13,76.7,0,153.4Z" transform="translate(-8.99 -2.71)"/><path class="cls-1" d="M314,154.58c-41.73.07-76.07-34.32-76-76.1a76,76,0,0,1,152,0C390.06,120.19,355.82,154.5,314,154.58Z" transform="translate(-8.99 -2.71)"/><path class="cls-1" d="M67.48,417.57H9.3C9.19,415.89,9,414.45,9,413q0-48.71,0-97.43c0-15,4.7-28.33,14.65-39.83C37.26,260,61,253.12,81.36,259.64c-.7,1.51-1.31,3-2.07,4.41-8.29,15.47-11.76,32.1-11.79,49.5q-.09,49,0,97.94Z" transform="translate(-8.99 -2.71)"/><path class="cls-1" d="M560.52,417.51v-5.84c0-30.31-.23-60.63.07-90.94.21-20.65-2.66-40.47-13-58.73a12.71,12.71,0,0,1-.76-2.28c18.43-6.81,43-.12,56.69,15.13,10,11.13,15.28,24.17,15.37,39,.2,33.48.07,66.95.06,100.43,0,1-.16,1.93-.27,3.19Z" transform="translate(-8.99 -2.71)"/><path class="cls-1" d="M457.86,207.86c-29.82-1.3-50.62-25.61-49.51-52.72,1.25-30.7,25.74-50.44,52.07-49.67,29.6.87,52.07,25.43,50.29,53.48C508.9,187.45,485.11,209.46,457.86,207.86Z" transform="translate(-8.99 -2.71)"/><path class="cls-1" d="M167.35,207.9c-29-1.28-51.45-24.94-50.14-52.72,1.4-29.4,24.78-50.42,52.12-49.72,31,.8,51.11,25.64,50.33,52.44C218.83,186.66,194.76,209.11,167.35,207.9Z" transform="translate(-8.99 -2.71)"/><path class="cls-1" d="M66,168.15a34.77,34.77,0,0,1,34.29,34.45c0,18.94-15.89,34.74-34.73,34.51a34.48,34.48,0,0,1,.44-69Z" transform="translate(-8.99 -2.71)"/><path class="cls-1" d="M596.56,204.35c-1.44,19.37-17.41,33.92-35.9,32.68-19.24-1.28-34.07-17.48-32.83-35.86,1.33-19.72,17.69-34.38,36.76-32.93C583.38,169.67,597.91,186.08,596.56,204.35Z" transform="translate(-8.99 -2.71)"/></svg>