<svg id="Vrstva_1" data-name="Vrstva 1" xmlns="http://www.w3.org/2000/svg" viewBox="0 0 721.96 722"><defs><style>.cls-1{fill:#414755;}</style></defs><path class="cls-1" d="M361,0C161.62,0,0,161.63,0,361S161.62,722,361,722,722,560.37,722,361,560.37,0,361,0Zm-1.23,110.51a129.49,129.49,0,0,1,130.6,128.64c.63,71.51-56.87,129.6-128.9,130.23-71.32.61-129.27-57.07-129.85-129.27C231.06,169.64,289,111,359.77,110.51Zm206.5,457.68q-74.47.07-148.94,0H161.42c-2.67,0-5.34.08-8-.06-12.92-.7-22.77-10.47-22.46-23.39,2.07-87.29,38.54-157,107.86-209.71a10.61,10.61,0,0,1,1.22-.66c60.69,77.84,178.83,79.07,242.05-.4,6.06,4.81,12.38,9.35,18.18,14.49q76.41,67.77,89.4,169.13A231.76,231.76,0,0,1,591,543.05C591.29,558.26,581.48,568.17,566.27,568.19Z"/></svg>