<svg id="Vrstva_1" data-name="Vrstva 1" xmlns="http://www.w3.org/2000/svg" viewBox="0 0 304 304"><defs><style>.cls-1{fill:#414755;}</style></defs><path class="cls-1" d="M152,0A152,152,0,1,0,304,152,152,152,0,0,0,152,0Zm72.69,234.57a1.21,1.21,0,0,1-1.21,1.22h-144a1.21,1.21,0,0,1-1.21-1.22V147.93a1.21,1.21,0,0,1,1.21-1.22h25V121.16c0-34,24.39-51.75,48.46-51.75h0A46.23,46.23,0,0,1,185.72,82.6c6.67,6.59,14.62,18.63,14.62,38.56a9,9,0,0,1-18,0c0-23.31-14.74-33.74-29.34-33.75h0c-14.66,0-30.45,10.56-30.46,33.75v25.55H223.48a1.21,1.21,0,0,1,1.21,1.22Z"/></svg>