<svg id="Vrstva_1" data-name="Vrstva 1" xmlns="http://www.w3.org/2000/svg" viewBox="0 0 642.02 528.31"><defs><style>.cls-1{fill:#fff;}</style></defs><title>Messages</title><path class="cls-1" d="M29.63,543.39c5.86-14.75,10.87-27.43,15.93-40.1,12.82-32.08,25.55-64.2,38.62-96.19,2-5,1.3-8.06-2.15-12.09-33.34-39-52.94-83.59-52.49-135.62C30,205.7,50.89,160,86.7,121c47-51.29,106.46-81,173.59-95.6C351.69,5.49,440.43,13.9,525,55.17c50.94,24.87,93.7,59.88,120.75,110.58,39.68,74.39,33.08,146.75-15.89,214.51-39.64,54.86-95.19,88-159,107.41q-138,41.9-272.82-10.9a18.58,18.58,0,0,0-12.71.29c-48.93,20.65-97.69,41.67-146.5,62.59C36.45,540.64,34.12,541.56,29.63,543.39Zm501.06-283a45.11,45.11,0,0,0-90.22-.87c-.13,24.9,20,45.49,44.76,45.7A45.17,45.17,0,0,0,530.69,260.35Zm-361-1A45,45,0,0,0,214,305.14,45.11,45.11,0,0,0,216,215C190.29,214.36,170.12,233.7,169.66,259.34Zm181-44.46A45.16,45.16,0,0,0,305,260.18c0,24.33,20.12,44.6,44.65,45s45.26-19.88,45.71-44.73A45.07,45.07,0,0,0,350.71,214.88Z" transform="translate(-29.53 -15.08)"/></svg>