<svg id="Vrstva_1" data-name="Vrstva 1" xmlns="http://www.w3.org/2000/svg" viewBox="0 0 105.51 118.99"><defs><style>.cls-1{fill:#fff;}</style></defs><title>Notification</title><path class="cls-1" d="M7.62,18.87,13.46,13l99.59,99.58-6,5.17c-2.69-2.65-5.13-5.61-8.13-7.82-2.21-1.62-5.15-3.16-7.77-3.18-26.14-.23-52.29-.11-78.43-.21-1.75,0-3.49-1-5.23-1.58.74-1.89.91-4.56,2.3-5.57,8.43-6.14,10.56-14.26,9.77-24.3-.65-8.23.07-16.61.77-24.88A34.73,34.73,0,0,1,23.69,39.3c1.18-2.62.82-4.25-1.17-6.09C17.68,28.68,13,24,7.62,18.87Z" transform="translate(-7.54 -5.5)"/><path class="cls-1" d="M42.82,21.2A10.26,10.26,0,0,1,45.2,20c2.91-.75,4.26-2.13,4.38-5.49.18-5.27,4-8.94,8.28-9,4.47-.11,8.23,3.66,8.61,9.28.19,2.7.92,4,3.6,5C87.14,26.19,96.4,39.71,96.57,58c.05,5.77,0,11.54,0,16.95Q69.69,48.1,42.82,21.2Z" transform="translate(-7.54 -5.5)"/><path class="cls-1" d="M47.35,113.71h21.1a10.4,10.4,0,0,1-10.31,10.78C52.39,124.61,47.73,120.07,47.35,113.71Z" transform="translate(-7.54 -5.5)"/></svg>