<svg id="Vrstva_1" data-name="Vrstva 1" xmlns="http://www.w3.org/2000/svg" viewBox="0 0 275.4 62.81"><defs><style>.cls-1{fill:#414755;}</style></defs><title>UserSettings</title><path class="cls-1" d="M173.56,32.79A31.38,31.38,0,1,1,142.24,1.34,31.36,31.36,0,0,1,173.56,32.79Z" transform="translate(-4.48 -1.32)"/><path class="cls-1" d="M35.6,64.11C18.4,63.85,4.15,49.24,4.49,32.2A31.8,31.8,0,0,1,36.62,1.33,31,31,0,0,1,67.4,33.22,31,31,0,0,1,35.6,64.11Z" transform="translate(-4.48 -1.32)"/><path class="cls-1" d="M247.65,1.32a31.76,31.76,0,0,1,32.22,30.83c.38,17.09-13.82,31.69-31.1,32a31,31,0,0,1-31.89-30.85A31,31,0,0,1,247.65,1.32Z" transform="translate(-4.48 -1.32)"/></svg>